# xmcd CD database file
#
# Track frame offsets:
#	150
#	20215
#	35092
#
# Disc length: 732 seconds
#
# Revision: 8
# Processed by: cddbd v1.5.2PL0 Copyright (c) Steve Scherf et al.
# Submitted via: CDex 1.70beta2
#
DISCID=2402da03
DTITLE=本名陽子 - 耳をすませば
DYEAR=1995
DGENRE=Anime
TTITLE0=カントリー・ロード
TTITLE1=半分だけの窓
TTITLE2=カントリー・ロード(ORIGINAL KARAOKE)
EXTD=YEAR: 1995
EXTT0=
EXTT1=
EXTT2=
PLAYORDER=
